<svg width="190" height="120" viewBox="0 0 190 120" fill="none" xmlns="http://www.w3.org/2000/svg">
<path d="M11.6516 118.767C11.6516 118.767 -11.6921 92.7155 7.7038 64.5115C24.9132 39.4869 44.9776 41.1976 59.6988 51.353C65.968 55.6783 84.0445 51.8856 99.4307 26.4224C120.412 -8.30327 193.142 12.7579 179.881 66.1838C173.463 92.0379 199.411 92.9779 186.19 118.822L11.6516 118.767Z" fill="#EBF3FA"/>
<path d="M62.4895 60.3267C62.3814 60.2465 62.2762 60.1644 62.1729 60.0805C62.3096 59.709 62.4416 59.3356 62.5679 58.9604C62.6128 58.8277 62.6569 58.6949 62.6999 58.5622C62.8137 58.6138 62.9323 58.6608 63.0586 58.7032C62.8788 59.2471 62.6894 59.7883 62.4895 60.3267Z" fill="#FF7755"/>
<path d="M37.7212 120H37.7221V119.941H37.7212V120Z" fill="#E5EBF2"/>
<path d="M37.7212 119.94H37.7221V117.786H37.7212V119.94Z" fill="#D8E3F2"/>
<path d="M153.595 120H153.596V119.941H153.595V120Z" fill="#E5EBF2"/>
<path d="M153.595 119.94H153.596V117.786H153.595V119.94Z" fill="#D8E3F2"/>
<path d="M26.8986 61.4829L26.7021 60.5758L26.7959 60.5573L26.9925 61.4645L26.8986 61.4829Z" fill="#974245"/>
<path d="M26.3296 61.6255L26.0962 60.8732L26.1877 60.8465L26.4211 61.5988L26.3296 61.6255Z" fill="#974245"/>
<path d="M25.8841 61.8291L25.6885 61.1266L25.7807 61.1027L25.9763 61.8051L25.8841 61.8291Z" fill="#974245"/>
<path d="M58.0261 65.8291L57.9419 65.7849L58.3962 64.9681L58.4804 65.0123L58.0261 65.8291Z" fill="#974245"/>
<path d="M58.672 66.0752L58.5869 66.0328L59.0145 65.2418L59.0996 65.2842L58.672 66.0752Z" fill="#974245"/>
<path d="M59.0906 66.1641L59.0093 66.1152L59.4034 65.4948L59.4847 65.5427L59.0906 66.1641Z" fill="#974245"/>
<path d="M186.111 118.658H10.3232V117.747H186.111V118.658Z" fill="#78ACEA"/>
<path d="M155.525 22.4912C155.525 35.9133 146.748 51.2956 137.903 51.2956C129.059 51.2956 120.271 35.9133 120.271 22.4912C120.271 9.06913 129.049 0 137.893 0C146.737 0 155.525 9.06913 155.525 22.4912Z" fill="#B0D0FF"/>
<path opacity="0.3" d="M155.525 22.4912C155.525 35.9133 146.748 51.2956 137.903 51.2956C129.059 51.2956 120.271 35.9133 120.271 22.4912C120.271 9.06913 129.049 0 137.893 0C146.737 0 155.525 9.06913 155.525 22.4912Z" fill="#6FA6F6"/>
<path d="M171.091 54.8526C168.422 65.6575 158.297 76.1687 151.178 74.2833C144.058 72.3979 140.056 58.1533 142.726 47.3484C145.395 36.5434 154.265 31.1169 161.385 32.9969C168.505 34.877 173.766 44.0476 171.091 54.8526Z" fill="#B0D0FF"/>
<path opacity="0.5" d="M171.091 54.8526C168.422 65.6575 158.297 76.1687 151.178 74.2833C144.058 72.3979 140.056 58.1533 142.726 47.3484C145.395 36.5434 154.265 31.1169 161.385 32.9969C168.505 34.877 173.766 44.0476 171.091 54.8526Z" fill="#B0D0FF"/>
<path d="M136.2 47.6529C139.127 58.3831 135.467 72.7292 128.388 74.7962C121.31 76.8632 110.947 66.6083 108.02 55.8781C105.092 45.1479 110.132 35.8438 117.205 33.7821C124.278 31.7205 133.272 36.9173 136.2 47.6529Z" fill="#B0D0FF"/>
<path opacity="0.5" d="M136.2 47.6529C139.127 58.3831 135.467 72.7292 128.388 74.7962C121.31 76.8632 110.947 66.6083 108.02 55.8781C105.092 45.1479 110.132 35.8438 117.205 33.7821C124.278 31.7205 133.272 36.9173 136.2 47.6529Z" fill="#B0D0FF"/>
<path d="M151.178 74.2833L137.903 118.769V51.2954" stroke="#78A4FE" stroke-width="0.516305" stroke-linecap="round" stroke-linejoin="round"/>
<path d="M128.388 74.7964L137.903 118.769" stroke="#78A4FE" stroke-width="0.516305" stroke-linecap="round" stroke-linejoin="round"/>
<path d="M79.8607 48.0825C79.8607 48.0825 77.8317 59.9984 79.3806 69.0142H81.2186C81.4438 62.0075 80.9889 54.9952 79.8607 48.0825Z" fill="white" stroke="#263238" stroke-width="0.516305" stroke-linecap="round" stroke-linejoin="round"/>
<path d="M79.8608 48.0822C79.8608 48.0822 77.9298 46.4799 78.7042 44.477C79.1429 43.3208 79.693 42.2132 80.3461 41.1709C80.3461 41.1709 80.6352 43.2753 81.0225 45.0806C81.4097 46.8858 79.8608 48.0822 79.8608 48.0822Z" fill="#78A4FE"/>
<path d="M86.0561 48.0825C86.0561 48.0825 84.027 59.9984 85.5759 69.0142H87.4139C87.6391 62.0075 87.1842 54.9952 86.0561 48.0825Z" fill="white" stroke="#263238" stroke-width="0.516305" stroke-linecap="round" stroke-linejoin="round"/>
<path d="M86.0565 48.0822C86.0565 48.0822 84.1203 46.4799 84.8948 44.477C85.3338 43.32 85.8857 42.2122 86.5418 41.1709C86.5418 41.1709 86.8309 43.2753 87.2181 45.0806C87.6054 46.8858 86.0565 48.0822 86.0565 48.0822Z" fill="#78A4FE"/>
<path d="M92.2519 48.0825C92.2519 48.0825 90.2228 59.9984 91.7717 69.0142H93.6097C93.8349 62.0075 93.38 54.9952 92.2519 48.0825Z" fill="white" stroke="#263238" stroke-width="0.516305" stroke-linecap="round" stroke-linejoin="round"/>
<path d="M92.2518 48.0822C92.2518 48.0822 90.3156 46.4799 91.0901 44.477C91.5291 43.32 92.081 42.2122 92.7371 41.1709C92.7371 41.1709 93.0262 43.2753 93.4135 45.0806C93.8007 46.8858 92.2518 48.0822 92.2518 48.0822Z" fill="#78A4FE"/>
<path d="M98.4477 48.0825C98.4477 48.0825 96.4186 59.9984 97.9623 69.0142H99.8055C100.028 62.0076 99.5728 54.9956 98.4477 48.0825Z" fill="white" stroke="#263238" stroke-width="0.516305" stroke-linecap="round" stroke-linejoin="round"/>
<path d="M98.4476 48.0822C98.4476 48.0822 96.5114 46.4799 97.2859 44.477C97.7249 43.32 98.2768 42.2122 98.9329 41.1709C98.9329 41.1709 99.222 43.2753 99.6093 45.0806C99.9965 46.8858 98.4476 48.0822 98.4476 48.0822Z" fill="#78A4FE"/>
<path d="M104.643 48.0825C104.643 48.0825 102.609 59.9984 104.158 69.0142H106.001C106.223 62.0076 105.768 54.9956 104.643 48.0825Z" fill="white" stroke="#263238" stroke-width="0.516305" stroke-linecap="round" stroke-linejoin="round"/>
<path d="M104.643 48.0822C104.643 48.0822 102.707 46.4799 103.482 44.477C103.921 43.32 104.473 42.2122 105.129 41.1709C105.129 41.1709 105.418 43.2753 105.805 45.0806C106.192 46.8858 104.643 48.0822 104.643 48.0822Z" fill="#78A4FE"/>
<path d="M75.1878 66.8028H109.429C110.022 66.8028 110.591 67.0464 111.01 67.4801C111.429 67.9139 111.665 68.5021 111.665 69.1154V86.3564H72.9419V69.1154C72.9419 68.8108 73.0001 68.5092 73.1131 68.228C73.2261 67.9467 73.3916 67.6912 73.6003 67.4763C73.809 67.2614 74.0567 67.0913 74.3291 66.9757C74.6016 66.8601 74.8934 66.8014 75.1878 66.8028Z" fill="#78A4FE"/>
<path d="M108.913 66.8029H75.6733C75.3162 66.8029 74.9626 66.8757 74.6328 67.0172C74.303 67.1588 74.0034 67.3662 73.7511 67.6276C73.4989 67.889 73.2989 68.1994 73.1628 68.5409C73.0266 68.8823 72.9568 69.2482 72.9575 69.6176V77.501H73.4738C74.4137 77.501 75.3151 77.1152 75.9801 76.4282C76.6452 75.7412 77.0195 74.8093 77.0209 73.8371V73.7623C77.0209 73.1064 77.2727 72.4774 77.721 72.0137C78.1693 71.5499 78.7773 71.2894 79.4113 71.2894C80.0453 71.2894 80.6534 71.5499 81.1017 72.0137C81.55 72.4774 81.8018 73.1064 81.8018 73.7623V76.9669C81.8018 77.5009 82.0069 78.0131 82.3719 78.3907C82.737 78.7683 83.2321 78.9805 83.7483 78.9805C84.2645 78.9805 84.7596 78.7683 85.1247 78.3907C85.4897 78.0131 85.6948 77.5009 85.6948 76.9669V71.9677C85.6948 71.632 85.8237 71.31 86.0532 71.0726C86.2826 70.8352 86.5939 70.7018 86.9184 70.7018H88.9165C89.241 70.7018 89.5523 70.8352 89.7817 71.0726C90.0112 71.31 90.1402 71.632 90.1402 71.9677C90.2238 72.6082 90.5291 73.1956 90.9996 73.621C91.47 74.0463 92.0736 74.2807 92.6984 74.2807C93.3232 74.2807 93.9268 74.0463 94.3973 73.621C94.8677 73.1956 95.1731 72.6082 95.2567 71.9677V71.3909C95.2567 71.0551 95.3857 70.7331 95.6151 70.4958C95.8446 70.2584 96.1558 70.125 96.4804 70.125C96.8049 70.125 97.1161 70.2584 97.3456 70.4958C97.5751 70.7331 97.704 71.0551 97.704 71.3909V74.5528C97.6887 74.9025 97.742 75.2518 97.8607 75.5796C97.9795 75.9074 98.1613 76.2069 98.3951 76.46C98.6289 76.7131 98.9099 76.9145 99.221 77.0522C99.5322 77.1898 99.8671 77.2608 100.206 77.2608C100.544 77.2608 100.879 77.1898 101.19 77.0522C101.501 76.9145 101.782 76.7131 102.016 76.46C102.25 76.2069 102.431 75.9074 102.55 75.5796C102.669 75.2518 102.722 74.9025 102.707 74.5528V72.5392H104.984C105.294 72.5392 105.591 72.4122 105.811 72.1859C106.03 71.9597 106.155 71.6527 106.156 71.3321C106.156 71.012 106.279 70.7049 106.498 70.4786C106.717 70.2522 107.013 70.125 107.323 70.125C107.52 70.125 107.715 70.1652 107.897 70.2434C108.079 70.3216 108.244 70.4362 108.383 70.5806C108.522 70.725 108.633 70.8963 108.708 71.0849C108.783 71.2734 108.821 71.4754 108.82 71.6793V73.8424C108.82 74.5351 109.086 75.1994 109.56 75.6892C110.033 76.179 110.675 76.4542 111.345 76.4542H111.66V69.6176C111.66 69.2457 111.589 68.8775 111.45 68.5343C111.312 68.191 111.109 67.8795 110.854 67.6178C110.598 67.3561 110.295 67.1493 109.962 67.0094C109.629 66.8695 109.272 66.7993 108.913 66.8029Z" fill="#2B478B" stroke="#2B478B" stroke-width="0.516305" stroke-linecap="round" stroke-linejoin="round"/>
<path d="M84.9824 69.6871C84.9824 69.3808 84.8945 69.0813 84.73 68.8266C84.5655 68.5718 84.3316 68.3733 84.0581 68.2561C83.7845 68.1389 83.4834 68.1082 83.193 68.1679C82.9025 68.2277 82.6357 68.3752 82.4263 68.5918C82.2169 68.8085 82.0743 69.0845 82.0166 69.3849C81.9588 69.6854 81.9884 69.9968 82.1018 70.2798C82.2151 70.5629 82.407 70.8048 82.6532 70.975C82.8995 71.1452 83.1889 71.236 83.4851 71.236C83.8822 71.236 84.263 71.0728 84.5438 70.7823C84.8246 70.4919 84.9824 70.0979 84.9824 69.6871Z" fill="white" stroke="white" stroke-width="0.516305" stroke-linecap="round" stroke-linejoin="round"/>
<path d="M78.3479 81.1974C78.3479 80.9787 78.2853 80.765 78.1678 80.5832C78.0504 80.4013 77.8835 80.2596 77.6882 80.1759C77.4929 80.0923 77.278 80.0704 77.0707 80.113C76.8634 80.1557 76.673 80.261 76.5235 80.4156C76.374 80.5702 76.2722 80.7672 76.231 80.9817C76.1897 81.1962 76.2109 81.4185 76.2918 81.6205C76.3727 81.8225 76.5097 81.9952 76.6854 82.1167C76.8612 82.2381 77.0678 82.303 77.2792 82.303C77.5627 82.303 77.8345 82.1865 78.0349 81.9792C78.2354 81.7718 78.3479 81.4906 78.3479 81.1974Z" fill="white" stroke="white" stroke-width="0.516305" stroke-linecap="round" stroke-linejoin="round"/>
<path d="M108.511 73.6668C109.101 73.6668 109.579 73.1718 109.579 72.5612C109.579 71.9505 109.101 71.4556 108.511 71.4556C107.92 71.4556 107.442 71.9505 107.442 72.5612C107.442 73.1718 107.92 73.6668 108.511 73.6668Z" fill="white" stroke="white" stroke-width="0.516305" stroke-linecap="round" stroke-linejoin="round"/>
<path d="M67.4848 85.208H117.122C118.045 85.208 118.93 85.5873 119.583 86.2624C120.236 86.9375 120.602 87.8531 120.602 88.8079V115.807H63.9946V88.8132C63.994 88.3392 64.0838 87.8696 64.259 87.4315C64.4342 86.9934 64.6914 86.5955 65.0157 86.2605C65.34 85.9255 65.7251 85.6601 66.1488 85.4795C66.5725 85.2989 67.0266 85.2066 67.4848 85.208Z" fill="#78A4FE"/>
<path d="M116.368 85.2083H68.2386C67.1153 85.2097 66.0384 85.6723 65.2446 86.4945C64.4508 87.3167 64.0049 88.4312 64.0049 89.5933V103.849H65.3473C65.7134 103.849 66.0758 103.774 66.4139 103.628C66.7519 103.483 67.0588 103.27 67.3169 103.001C67.575 102.733 67.7793 102.414 67.918 102.064C68.0567 101.713 68.127 101.338 68.125 100.959V95.3883C68.125 95.0682 68.2479 94.7612 68.4668 94.5348C68.6856 94.3084 68.9824 94.1813 69.2918 94.1813C69.6013 94.1813 69.8981 94.3084 70.1169 94.5348C70.3358 94.7612 70.4587 95.0682 70.4587 95.3883V97.2203C70.4587 97.8762 70.7105 98.5052 71.1588 98.9689C71.6072 99.4327 72.2152 99.6932 72.8492 99.6932C73.4832 99.6932 74.0912 99.4327 74.5395 98.9689C74.9878 98.5052 75.2397 97.8762 75.2397 97.2203V94.1706C75.2465 93.4669 75.5215 92.7945 76.0048 92.2995C76.4882 91.8044 77.141 91.5267 77.8212 91.5267C78.5014 91.5267 79.1541 91.8044 79.6375 92.2995C80.1209 92.7945 80.3959 93.4669 80.4027 94.1706V101.114C80.3874 101.464 80.4407 101.813 80.5595 102.141C80.6782 102.469 80.86 102.768 81.0938 103.021C81.3276 103.274 81.6086 103.476 81.9197 103.613C82.2309 103.751 82.5658 103.822 82.9042 103.822C83.2426 103.822 83.5775 103.751 83.8887 103.613C84.1998 103.476 84.4808 103.274 84.7146 103.021C84.9484 102.768 85.1302 102.469 85.249 102.141C85.3677 101.813 85.4211 101.464 85.4057 101.114V94.0157C85.4057 93.9094 85.4465 93.8076 85.5191 93.7324C85.5917 93.6573 85.6902 93.6151 85.7929 93.6151C86.7515 93.6151 87.6707 93.2212 88.3485 92.52C89.0263 91.8189 89.4071 90.8679 89.4071 89.8764C89.4071 89.6171 89.5066 89.3685 89.6838 89.1852C89.861 89.0019 90.1013 88.8989 90.3519 88.8989H92.887C93.5566 88.8989 94.1987 89.1741 94.6722 89.6639C95.1457 90.1537 95.4117 90.818 95.4117 91.5107V94.5498C95.4354 94.9914 95.6218 95.4069 95.9324 95.7109C96.243 96.0148 96.6544 96.1842 97.0819 96.1842C97.5095 96.1842 97.9209 96.0148 98.2315 95.7109C98.5421 95.4069 98.7284 94.9914 98.7522 94.5498V93.9409C98.7522 93.2482 99.0182 92.5839 99.4917 92.0941C99.9651 91.6043 100.607 91.3291 101.277 91.3291H101.649C102.532 91.3291 103.379 91.6921 104.003 92.3381C104.628 92.9842 104.979 93.8605 104.979 94.7741V98.9775C104.979 99.4195 105.149 99.8434 105.451 100.156C105.753 100.468 106.162 100.644 106.59 100.644C107.017 100.644 107.427 100.468 107.729 100.156C108.031 99.8434 108.201 99.4195 108.201 98.9775V95.4685C108.201 94.7361 108.482 94.0338 108.982 93.5159C109.483 92.9981 110.162 92.7071 110.87 92.7071C111.578 92.7071 112.257 92.9981 112.757 93.5159C113.258 94.0338 113.539 94.7361 113.539 95.4685V103.042C113.539 103.439 113.691 103.819 113.963 104.1C114.234 104.38 114.601 104.538 114.985 104.538C115.368 104.538 115.736 104.38 116.007 104.1C116.278 103.819 116.43 103.439 116.43 103.042V98.2885C116.432 97.3541 116.791 96.4583 117.43 95.7975C118.069 95.1367 118.935 94.7648 119.838 94.7634H120.654V89.5986C120.655 89.0183 120.544 88.4435 120.328 87.9077C120.113 87.3719 119.796 86.8857 119.398 86.4774C118.999 86.069 118.526 85.7465 118.006 85.5287C117.486 85.3108 116.929 85.2019 116.368 85.2083Z" fill="#2B478B" stroke="#2B478B" stroke-width="0.516305" stroke-linecap="round" stroke-linejoin="round"/>
<path d="M74.4964 95.132C74.4964 94.9133 74.4337 94.6995 74.3163 94.5177C74.1988 94.3359 74.0319 94.1942 73.8366 94.1105C73.6413 94.0268 73.4264 94.005 73.2191 94.0476C73.0118 94.0903 72.8214 94.1956 72.6719 94.3502C72.5224 94.5048 72.4207 94.7018 72.3794 94.9163C72.3382 95.1307 72.3594 95.353 72.4402 95.5551C72.5211 95.7571 72.6581 95.9298 72.8339 96.0512C73.0096 96.1727 73.2163 96.2376 73.4276 96.2376C73.7111 96.2376 73.9829 96.1211 74.1834 95.9137C74.3838 95.7064 74.4964 95.4252 74.4964 95.132Z" fill="white" stroke="white" stroke-width="0.516305" stroke-linecap="round" stroke-linejoin="round"/>
<path d="M88.617 88.9362C88.617 88.7175 88.5543 88.5037 88.4369 88.3219C88.3194 88.1401 88.1525 87.9984 87.9572 87.9147C87.7619 87.831 87.547 87.8092 87.3397 87.8518C87.1324 87.8945 86.942 87.9998 86.7925 88.1544C86.643 88.309 86.5413 88.506 86.5 88.7205C86.4588 88.9349 86.48 89.1572 86.5608 89.3593C86.6417 89.5613 86.7787 89.734 86.9545 89.8554C87.1302 89.9769 87.3369 90.0418 87.5482 90.0418C87.8317 90.0418 88.1035 89.9253 88.304 89.7179C88.5044 89.5106 88.617 89.2294 88.617 88.9362Z" fill="white" stroke="white" stroke-width="0.516305" stroke-linecap="round" stroke-linejoin="round"/>
<path d="M107.013 91.3718C107.603 91.3718 108.082 90.8769 108.082 90.2662C108.082 89.6556 107.603 89.1606 107.013 89.1606C106.423 89.1606 105.944 89.6556 105.944 90.2662C105.944 90.8769 106.423 91.3718 107.013 91.3718Z" fill="white" stroke="white" stroke-width="0.516305" stroke-linecap="round" stroke-linejoin="round"/>
<path d="M122.605 114.429H61V117.538H122.605V114.429Z" fill="#2B478B"/>
</svg>
